<?xml version="1.0" encoding="UTF-8"?>
<svg id="Layer_2" xmlns="http://www.w3.org/2000/svg" version="1.1" viewBox="0 0 1000 1000">
  <!-- Generator: Adobe Illustrator 29.1.0, SVG Export Plug-In . SVG Version: 2.1.0 Build 142)  -->
  <path d="M642.38,223.98h-301.51v-40.71l4.75-1.01c47.6-10.15,96.72-15.3,146.01-15.3.36,0,.71,0,1.07,0,48.92.07,97.68,5.22,144.93,15.3l4.75,1.01v40.71ZM352.88,211.98h277.51v-18.98c-44.95-9.25-91.24-13.97-137.69-14.04-47.14-.14-94.18,4.65-139.81,14.04v18.98Z"/>
  <rect x="346.82" y="275.16" width="14" height="492.94"/>
  <rect x="625.38" y="275.16" width="14" height="492.94"/>
  <path d="M643.64,809.92h-300.69c-16.06,0-29.12-13.06-29.12-29.12V268.8c0-16.06,13.06-29.12,29.12-29.12h300.69c16.06,0,29.12,13.06,29.12,29.12v512c0,16.05-13.06,29.12-29.12,29.12ZM342.94,253.68c-8.34,0-15.12,6.78-15.12,15.12v512c0,8.34,6.78,15.12,15.12,15.12h300.69c8.34,0,15.12-6.78,15.12-15.12V268.8c0-8.34-6.78-15.12-15.12-15.12h-300.69Z"/>
  <rect x="320.83" y="269.16" width="344.93" height="12"/>
  <g>
    <path d="M306.17,260.08c-3.34-2.59-5.47-6.32-6-10.52s.6-8.34,3.19-11.68c2.59-3.34,6.32-5.47,10.52-6,4.19-.53,8.34.6,11.68,3.19l-4.9,6.32c-1.65-1.28-3.7-1.85-5.78-1.58-2.07.26-3.92,1.32-5.2,2.97-1.28,1.65-1.84,3.7-1.58,5.78.26,2.07,1.32,3.92,2.97,5.2l-4.9,6.32Z"/>
    <rect x="308.8" y="254.87" width="8" height="10.59" transform="translate(-84.46 348.01) rotate(-52.22)"/>
    <rect x="323.29" y="236.18" width="8" height="10.59" transform="translate(-64.06 352.27) rotate(-52.23)"/>
  </g>
  <g>
    <path d="M681.17,260.08l-4.9-6.32c1.65-1.28,2.71-3.13,2.97-5.2.26-2.07-.3-4.12-1.58-5.78-1.28-1.65-3.13-2.71-5.2-2.97-2.07-.27-4.12.3-5.78,1.58l-4.9-6.32c3.34-2.59,7.49-3.73,11.68-3.19,4.19.53,7.93,2.66,10.52,6,5.35,6.9,4.08,16.86-2.81,22.2Z"/>
    <rect x="669.24" y="256.16" width="10.59" height="8" transform="translate(-18 467.72) rotate(-37.77)"/>
    <rect x="654.75" y="237.47" width="10.59" height="8" transform="translate(-9.59 454.93) rotate(-37.77)"/>
  </g>
  <path d="M718.88,520.27v17.68c0,2.04-1.65,3.69-3.69,3.69h-3c-2.04,0-3.69-1.65-3.69-3.69v-17.68c0-2.03,1.65-3.69,3.69-3.69h3c2.04,0,3.69,1.66,3.69,3.69Z"/>
  <path d="M703.95,577.42h-15.94c-4.23,0-7.67-3.98-7.67-8.87v-1.04h-9.7v-5.91h14.81v6.96c0,1.63,1.15,2.96,2.56,2.96h15.94c1.41,0,2.56-1.33,2.56-2.96v-78.88c0-1.63-1.15-2.96-2.56-2.96h-15.94c-1.41,0-2.56,1.33-2.56,2.96v6.96h-14.81v-5.91h9.7v-1.04c0-4.89,3.44-8.87,7.67-8.87h15.94c4.23,0,7.67,3.98,7.67,8.87v78.88c0,4.89-3.44,8.87-7.67,8.87Z"/>
  <rect x="680.35" y="490" width="5.11" height="78.23"/>
  <rect x="682.9" y="490" width="26.16" height="2.96"/>
  <rect x="682.9" y="496.27" width="26.16" height="2.96"/>
  <rect x="682.9" y="502.54" width="26.16" height="2.96"/>
  <rect x="682.9" y="508.81" width="26.16" height="2.96"/>
  <rect x="682.9" y="515.09" width="26.16" height="2.96"/>
  <rect x="682.9" y="521.36" width="26.16" height="2.96"/>
  <rect x="682.9" y="527.63" width="26.16" height="2.96"/>
  <rect x="682.9" y="533.9" width="26.16" height="2.96"/>
  <rect x="682.9" y="540.18" width="26.16" height="2.96"/>
  <rect x="682.9" y="546.45" width="26.16" height="2.96"/>
  <rect x="682.9" y="552.72" width="26.16" height="2.96"/>
  <rect x="682.9" y="558.99" width="26.16" height="2.96"/>
  <rect x="682.9" y="565.27" width="26.16" height="2.96"/>
  <g>
    <path d="M486.7,356.61v-40.96c-4.65-4.47-9.16-9.01-13.63-13.63h-76.39l-13.63,13.63v190.87c4.62,4.47,9.16,9.05,13.63,13.63h58.64l16.78-29.09h14.61v-93.57l-23.19,6.19-16.82,4.54-9.16,2.43.98,30.48,8.42-5.77,9.12-2.43,3.39-.91v60.89h-49.15v-163.64h49.15v27.35h27.27Z"/>
    <path d="M573.42,302.01v190.89h-49v-190.89h-27.35v189.04h14.63l16.78,29.09h58.57l13.63-13.63v-204.5h-27.27Z"/>
    <path d="M472.09,559.65l-16.82-29.13h-72.25v8.9l.11.09v200.09l-.11.09v8.9h27.44v-82.23l66.19-17.76,3.86-5.01,1.48-1.89,1.58-1.98c1.22-1.74,2.28-3.17,3.15-4.32v-75.74h-14.63ZM459.47,625.93l-49.02,13.22v-81.43h49.02v68.21Z"/>
    <path d="M600.69,585.12v-30.59l-13.87-24.01h-58.29l-16.82,29.13h-14.63v175.37c2.15,2.08,4.43,4.32,6.93,6.71l1.41,1.58,1.74,1.71c1.32,1.32,2.5,2.54,3.56,3.56h76.39l3.56-3.56,1.58-1.71,1.56-1.58c2.5-2.39,4.8-4.62,6.88-6.71v-40.88h-27.2v27.27h-49.17v-163.69h49.17v27.4h27.2Z"/>
    <g>
      <polygon points="515.62 514.71 510.7 523.33 503.36 510.41 502.04 508.07 497.16 499.48 506.83 499.48 515.62 514.71"/>
      <polygon points="481.48 543.5 486.47 552.09 476.46 552.09 467.5 536.58 472.49 528.02 480.13 541.17 481.48 543.5"/>
      <polygon points="480.06 510.41 466.14 534.24 461.27 525.79 470.15 510.41 480.06 510.41"/>
      <polygon points="499.35 508.07 471.51 508.07 476.46 499.48 494.47 499.48 499.35 508.07"/>
      <polygon points="511.79 543.5 506.83 552.09 489.18 552.09 484.19 543.5 511.79 543.5"/>
      <polygon points="522.02 525.79 513.14 541.17 503.22 541.17 516.98 517.05 522.02 525.79"/>
      <path d="M499.16,512.98h-14.92l-7.42,12.74,7.48,12.88h14.74l7.36-12.9-7.24-12.72ZM491.6,532.18c-3.52,0-6.38-2.86-6.38-6.4s2.86-6.38,6.38-6.38,6.4,2.86,6.4,6.38-2.86,6.4-6.4,6.4Z"/>
    </g>
    <circle cx="495.83" cy="524.06" r="1.73"/>
  </g>
  <path d="M493.23,777.05c-1.47,0-2.93,0-4.4,0-56.16-.17-112.91-3.51-168.69-9.93l1.37-11.92c55.33,6.37,111.64,9.69,167.35,9.85,58.63.15,117.93-3.14,176.21-9.85l1.37,11.92c-57.28,6.6-115.54,9.94-173.21,9.94Z"/>
  <path d="M398.81,808.75l-11.86-4.46-11.77,15.27c-.52.32-1.12.49-1.74.49h-10.29c-.61,0-1.22-.17-1.74-.49l-11.77-15.27-.22.17-11.49,4.29,2.21,2.87h0s12.68,16.46,12.68,16.46l.51.42c2.75,2.29,6.24,3.55,9.82,3.55h10.29c3.58,0,7.07-1.26,9.82-3.55l.51-.42,7.49-9.72,7.55-9.61Z"/>
  <path d="M565.45,809.45l-12.28-6.04-22.05,16c-1.46,1.06-3.19,1.62-4.99,1.62h-64.23c-1.8,0-3.53-.56-4.99-1.62l-22.48-16.32-12.51,5.71,5.47,3.99h-.01s22.48,16.33,22.48,16.33c3.52,2.56,7.69,3.91,12.04,3.91h64.23c4.35,0,8.52-1.35,12.04-3.91l15.73-11.41h0l11.55-8.26Z"/>
  <path d="M649.22,805.87l-14.11-.73-9.76,14.6c-.15.09-.33.16-.52.16h-9.06c-.24,0-.46-.11-.63-.23l-11.85-15.37-12.89,2.93,3.39,4.4h0l12.21,15.84.59.66c2.53,2.44,5.8,3.79,9.19,3.79h9.06c3.4,0,6.66-1.35,9.19-3.79l.46-.45,6.39-9.57h0l8.34-12.23Z"/>
  <rect x="672.75" y="694.4" width="6.59" height="5.87"/>
  <rect x="672.75" y="733.4" width="7.59" height="5.88"/>
  <path d="M698.14,692.43v47.52c0,1.92-1.55,3.48-3.47,3.48h-9.86c-1.91,0-3.47-1.56-3.47-3.48v-47.52c0-1.92,1.56-3.48,3.47-3.48h9.86c1.92,0,3.47,1.56,3.47,3.48Z"/>
  <path d="M708.74,708.04v17.8c0,1.91-1.55,3.47-3.47,3.47h-1.65c-1.92,0-3.48-1.56-3.48-3.47v-17.8c0-1.91,1.56-3.47,3.48-3.47h1.65c1.92,0,3.47,1.56,3.47,3.47Z"/>
  <g>
    <g>
      <rect x="672.75" y="344.98" width="6.59" height="5.88"/>
      <rect x="672.75" y="383.99" width="6.59" height="5.87"/>
    </g>
    <path d="M696.33,394.74c0,2.61-2.12,4.73-4.72,4.73h-5.54c-2.61,0-4.73-2.12-4.73-4.73v-54.63c0-2.61,2.12-4.73,4.73-4.73h5.54c2.6,0,4.72,2.12,4.72,4.73v54.63Z"/>
  </g>
  <g>
    <path d="M290.05,363.47c0,1.3-.56,2.47-1.45,3.29-1.6-18.79-.91-33.68-.55-39.14,1.21.81,2,2.18,2,3.73v32.12Z"/>
    <path d="M315.83,499.33c-.26,2.57-2.43,4.49-4.97,4.49-.17,0-.34-.01-.51-.02-2.75-.28-4.75-2.74-4.47-5.48,4.32-42.47-4.82-73.27-5.41-75.18-6.79-18.4-10.12-37.6-11.65-54.07-.01-.06-.02-.12-.02-.17.17-.03.34-.08.5-.14.62-.42,1.15-.96,1.57-1.57.75-1.05,1.19-2.34,1.19-3.72v-32.12c0-1.38-.44-2.67-1.19-3.72-.42-.61-.95-1.15-1.57-1.57-.33-.24-.69-.44-1.07-.61v-.02c.25-2.75,2.67-4.78,5.43-4.53,2.75.25,4.78,2.68,4.53,5.43-.04.5-4.27,50.27,11.71,93.46.03.07.05.15.07.22.43,1.35,10.5,33.63,5.86,79.32Z"/>
  </g>
  <g>
    <path d="M290.87,367.19c-.28.72-.85,1.29-1.57,1.57.62-.42,1.15-.96,1.57-1.57Z"/>
    <path d="M289.29,326.06c.72.28,1.29.85,1.57,1.57-.42-.61-.95-1.15-1.57-1.57Z"/>
    <path d="M290.05,363.47c0,1.3-.56,2.47-1.45,3.29-.79.73-1.85,1.18-3.02,1.18-2.46,0-4.47-2.01-4.47-4.47v-32.12c0-2.46,2.01-4.47,4.47-4.47.92,0,1.76.27,2.47.74,1.21.81,2,2.18,2,3.73v32.12Z"/>
    <path d="M288.79,368.9s.01.11.02.17c.17-.1.33-.2.48-.31-.16.06-.33.11-.5.14Z"/>
  </g>
  <rect x="304.89" y="460.79" width="10.94" height="43.06" rx="2.74" ry="2.74"/>
</svg>